<svg width="1024" height="1024" viewBox="0 0 1024 1024" fill="none" xmlns="http://www.w3.org/2000/svg">
<g clip-path="url(#clip0_0_15)">
<path d="M793.6 0H230.4C103.154 0 0 103.154 0 230.4V793.6C0 920.846 103.154 1024 230.4 1024H793.6C920.846 1024 1024 920.846 1024 793.6V230.4C1024 103.154 920.846 0 793.6 0Z" fill="#C52A3A"/>
<path d="M277.1 705.4H474.1L190 837.4L277.1 705.4Z" fill="white"/>
<ellipse cx="509.5" cy="494" rx="408.5" ry="287" fill="white"/>
<path d="M254.455 556.2C250.591 556.2 247.624 555.142 245.556 553.028C243.488 550.913 242.454 547.867 242.454 543.888V481.377C242.454 477.399 243.483 474.375 245.54 472.307C247.598 470.239 250.501 469.205 254.251 469.205C258.001 469.205 260.899 470.239 262.945 472.307C264.992 474.375 266.015 477.399 266.015 481.377V492.975L264.126 486.856C266.437 481.348 269.991 476.972 274.787 473.728C279.584 470.484 285.28 468.862 291.876 468.862C298.457 468.862 303.927 470.432 308.288 473.572C312.648 476.713 315.73 481.527 317.533 488.015H315.129C317.526 482.078 321.351 477.401 326.606 473.986C331.86 470.57 337.867 468.862 344.627 468.862C351.08 468.862 356.406 470.137 360.606 472.688C364.805 475.238 367.94 479.103 370.011 484.283C372.082 489.462 373.118 496.019 373.118 503.953V543.888C373.118 547.867 372.061 550.913 369.946 553.028C367.831 555.142 364.842 556.2 360.978 556.2C357.114 556.2 354.148 555.142 352.08 553.028C350.012 550.913 348.978 547.867 348.978 543.888V504.811C348.978 498.832 348.016 494.472 346.092 491.733C344.168 488.994 340.914 487.624 336.329 487.624C331.151 487.624 327.099 489.453 324.174 493.112C321.249 496.77 319.786 501.886 319.786 508.459V543.888C319.786 547.867 318.752 550.913 316.684 553.028C314.616 555.142 311.65 556.2 307.786 556.2C303.922 556.2 300.933 555.142 298.818 553.028C296.704 550.913 295.646 547.867 295.646 543.888V504.811C295.646 498.832 294.684 494.472 292.76 491.733C290.837 488.994 287.629 487.624 283.137 487.624C277.959 487.624 273.908 489.453 270.982 493.112C268.057 496.77 266.595 501.886 266.595 508.459V543.888C266.595 552.096 262.548 556.2 254.455 556.2Z" fill="#191F28"/>
<path d="M414.083 587.104C411.286 587.104 408.994 586.371 407.209 584.904C405.423 583.437 404.355 581.498 404.005 579.086C403.654 576.675 404.069 574.127 405.25 571.444L416.86 545.841V555.738L386.161 485.005C385.002 482.207 384.621 479.608 385.018 477.207C385.415 474.806 386.608 472.873 388.598 471.406C390.587 469.939 393.31 469.205 396.766 469.205C399.7 469.205 402.059 469.876 403.845 471.218C405.63 472.56 407.238 475.116 408.67 478.887L430.105 532.842H424.76L446.808 478.683C448.239 475.07 449.91 472.587 451.82 471.234C453.731 469.882 456.278 469.205 459.463 469.205C462.239 469.205 464.457 469.939 466.117 471.406C467.778 472.873 468.801 474.783 469.187 477.137C469.574 479.492 469.13 482.068 467.856 484.866L426.942 577.895C425.304 581.487 423.513 583.92 421.57 585.194C419.627 586.467 417.132 587.104 414.083 587.104Z" fill="#191F28"/>
<path d="M531.341 556.543C524.416 556.543 518.325 554.823 513.067 551.382C507.809 547.941 504.333 543.363 502.637 537.648L504.526 532.549V543.888C504.526 547.867 503.503 550.913 501.456 553.028C499.409 555.142 496.501 556.2 492.729 556.2C488.865 556.2 485.904 555.142 483.847 553.028C481.79 550.913 480.761 547.867 480.761 543.888V444.454C480.761 440.475 481.795 437.452 483.863 435.384C485.931 433.316 488.897 432.281 492.762 432.281C496.626 432.281 499.615 433.316 501.73 435.384C503.844 437.452 504.901 440.475 504.901 444.454V486.802H502.841C504.651 481.451 508.156 477.124 513.357 473.819C518.558 470.514 524.552 468.862 531.341 468.862C538.737 468.862 545.188 470.636 550.693 474.184C556.198 477.733 560.501 482.756 563.602 489.256C566.703 495.755 568.254 503.547 568.254 512.633C568.254 521.604 566.703 529.391 563.602 535.994C560.501 542.597 556.175 547.672 550.623 551.221C545.072 554.769 538.645 556.543 531.341 556.543ZM524.234 538.393C528.146 538.393 531.581 537.443 534.539 535.544C537.496 533.645 539.803 530.793 541.458 526.988C543.114 523.183 543.942 518.398 543.942 512.633C543.942 503.928 542.131 497.482 538.508 493.294C534.885 489.106 530.127 487.012 524.234 487.012C520.343 487.012 516.914 487.939 513.946 489.791C510.977 491.643 508.665 494.467 507.01 498.261C505.354 502.056 504.526 506.846 504.526 512.633C504.526 521.245 506.337 527.691 509.96 531.972C513.583 536.252 518.341 538.393 524.234 538.393Z" fill="#191F28"/>
<path d="M594.746 556.06C590.882 556.06 587.916 554.912 585.848 552.615C583.78 550.318 582.746 547.091 582.746 542.933V482.472C582.746 478.222 583.78 474.971 585.848 472.721C587.916 470.47 590.882 469.345 594.746 469.345C598.61 469.345 601.6 470.47 603.714 472.721C605.829 474.971 606.886 478.222 606.886 482.472V542.933C606.886 547.091 605.857 550.318 603.8 552.615C601.743 554.912 598.725 556.06 594.746 556.06Z" fill="#191F28"/>
<path d="M653.999 556.543C647.803 556.543 642.293 555.359 637.467 552.991C632.642 550.623 628.868 547.409 626.146 543.349C623.424 539.289 622.063 534.698 622.063 529.576C622.063 523.395 623.665 518.507 626.87 514.913C630.075 511.318 635.272 508.725 642.462 507.133C649.651 505.541 659.259 504.745 671.284 504.745H680.127V517.72H671.391C665.069 517.72 659.99 518.058 656.153 518.734C652.316 519.41 649.569 520.524 647.914 522.076C646.258 523.629 645.43 525.764 645.43 528.481C645.43 531.936 646.633 534.763 649.04 536.962C651.446 539.161 654.835 540.261 659.205 540.261C662.702 540.261 665.808 539.449 668.523 537.825C671.237 536.202 673.399 533.969 675.008 531.126C676.618 528.283 677.422 525.009 677.422 521.304V501.527C677.422 496.256 676.228 492.485 673.839 490.214C671.45 487.944 667.397 486.808 661.682 486.808C658.513 486.808 655.076 487.182 651.371 487.929C647.666 488.677 643.685 489.97 639.428 491.808C636.995 492.86 634.868 493.108 633.047 492.553C631.226 491.999 629.82 490.936 628.829 489.366C627.838 487.795 627.348 486.065 627.359 484.176C627.37 482.287 627.908 480.448 628.974 478.659C630.041 476.871 631.79 475.533 634.223 474.645C639.532 472.513 644.591 471.017 649.402 470.155C654.213 469.293 658.6 468.862 662.563 468.862C671.148 468.862 678.215 470.148 683.763 472.72C689.312 475.292 693.461 479.194 696.212 484.428C698.963 489.661 700.339 496.381 700.339 504.587V543.888C700.339 547.867 699.378 550.913 697.457 553.028C695.535 555.142 692.768 556.2 689.154 556.2C685.54 556.2 682.744 555.142 680.766 553.028C678.787 550.913 677.798 547.867 677.798 543.888V536.777L679.075 537.454C678.338 541.353 676.834 544.724 674.563 547.567C672.292 550.411 669.42 552.618 665.947 554.188C662.474 555.758 658.491 556.543 653.999 556.543Z" fill="#191F28"/>
<path d="M750.361 556.543C745.375 556.543 740.183 556.066 734.786 555.111C729.389 554.156 724.526 552.516 720.198 550.192C718.065 549.047 716.557 547.638 715.673 545.963C714.789 544.289 714.417 542.588 714.557 540.86C714.696 539.132 715.284 537.604 716.322 536.276C717.359 534.949 718.721 534.054 720.406 533.593C722.091 533.131 723.957 533.358 726.003 534.273C730.625 536.319 734.917 537.755 738.88 538.581C742.843 539.407 746.717 539.821 750.501 539.821C755.629 539.821 759.414 538.973 761.857 537.278C764.299 535.583 765.52 533.363 765.52 530.616C765.52 528.242 764.714 526.42 763.101 525.151C761.488 523.881 759.112 522.957 755.973 522.378L738.255 519.148C731.159 517.818 725.723 515.214 721.95 511.336C718.176 507.459 716.289 502.433 716.289 496.259C716.289 490.636 717.854 485.778 720.984 481.686C724.114 477.594 728.45 474.433 733.991 472.205C739.532 469.976 745.89 468.862 753.066 468.862C758.145 468.862 762.861 469.363 767.214 470.364C771.567 471.365 775.793 472.946 779.892 475.106C781.824 476.065 783.164 477.353 783.912 478.97C784.66 480.587 784.878 482.259 784.567 483.988C784.256 485.716 783.559 487.261 782.475 488.625C781.391 489.988 780.001 490.866 778.305 491.26C776.609 491.654 774.681 491.382 772.52 490.445C768.907 488.721 765.518 487.48 762.353 486.722C759.187 485.964 756.181 485.585 753.334 485.585C747.984 485.585 744.077 486.455 741.613 488.197C739.149 489.938 737.917 492.228 737.917 495.067C737.917 497.17 738.638 498.936 740.079 500.367C741.52 501.797 743.728 502.766 746.703 503.274L764.421 506.504C771.839 507.834 777.482 510.352 781.348 514.058C785.215 517.764 787.148 522.761 787.148 529.049C787.148 537.663 783.8 544.399 777.104 549.257C770.407 554.114 761.493 556.543 750.361 556.543Z" fill="#191F28"/>
<path d="M593.7 465.03C569.53 447.77 568.53 433.24 579.6 425.52C586.65 420.52 591.69 424.16 593.7 431.88C595.71 424.16 600.75 420.52 607.8 425.52C618.87 433.24 617.87 447.77 593.7 465.03Z" fill="#C52A3A"/>
</g>
<defs>
<clipPath id="clip0_0_15">
<rect width="1024" height="1024" fill="white"/>
</clipPath>
</defs>
</svg>
