<svg width="545" height="166" viewBox="0 0 545 166" fill="none" xmlns="http://www.w3.org/2000/svg">
<path d="M12.0004 134.975C8.13626 134.975 5.17015 133.918 3.10209 131.804C1.03403 129.689 0 126.642 0 122.664V60.1531C0 56.1745 1.02865 53.1511 3.08595 51.0831C5.14325 49.015 8.04675 47.981 11.7965 47.981C15.5462 47.981 18.4443 49.015 20.4908 51.0831C22.5374 53.1511 23.5606 56.1745 23.5606 60.1531V71.7505L21.672 65.6315C23.9828 60.1237 27.5364 55.7477 32.333 52.5037C37.1296 49.2596 42.8257 47.6376 49.4214 47.6376C56.0024 47.6376 61.4731 49.2078 65.8334 52.3481C70.1936 55.4884 73.2752 60.3027 75.0782 66.7908H72.6745C75.0713 60.8535 78.8969 56.1769 84.1514 52.7612C89.4058 49.3455 95.413 47.6376 102.173 47.6376C108.626 47.6376 113.952 48.9128 118.151 51.4632C122.351 54.0136 125.486 57.8786 127.557 63.0582C129.628 68.2377 130.663 74.7945 130.663 82.7284V122.664C130.663 126.642 129.606 129.689 127.492 131.804C125.377 133.918 122.388 134.975 118.524 134.975C114.659 134.975 111.693 133.918 109.625 131.804C107.557 129.689 106.523 126.642 106.523 122.664V83.5869C106.523 77.6074 105.561 73.2481 103.637 70.5088C101.714 67.7695 98.4594 66.3998 93.875 66.3998C88.6968 66.3998 84.6451 68.229 81.7199 71.8875C78.7947 75.5459 77.3322 80.6617 77.3322 87.235V122.664C77.3322 126.642 76.2981 129.689 74.2301 131.804C72.162 133.918 69.1959 134.975 65.3317 134.975C61.4676 134.975 58.4782 133.918 56.3637 131.804C54.2492 129.689 53.1919 126.642 53.1919 122.664V83.5869C53.1919 77.6074 52.23 73.2481 50.3061 70.5088C48.3822 67.7695 45.1746 66.3998 40.6831 66.3998C35.5049 66.3998 31.4532 68.229 28.528 71.8875C25.6028 75.5459 24.1403 80.6617 24.1403 87.235V122.664C24.1403 130.871 20.0936 134.975 12.0004 134.975Z" fill="#191F28"/>
<path d="M171.629 165.88C168.831 165.88 166.54 165.146 164.754 163.679C162.969 162.212 161.901 160.273 161.55 157.862C161.199 155.45 161.614 152.903 162.795 150.22L174.406 124.617V134.513L143.707 63.7806C142.547 60.9827 142.166 58.3835 142.564 55.9828C142.961 53.5821 144.154 51.6483 146.143 50.1814C148.133 48.7145 150.855 47.981 154.312 47.981C157.245 47.981 159.605 48.6519 161.39 49.9936C163.176 51.3353 164.784 53.8917 166.215 57.6629L187.651 111.617H182.306L204.353 57.459C205.785 53.8453 207.456 51.3622 209.366 50.0097C211.277 48.6572 213.824 47.981 217.008 47.981C219.785 47.981 222.003 48.7145 223.663 50.1814C225.323 51.6483 226.346 53.5589 226.733 55.9131C227.119 58.2673 226.676 60.8433 225.402 63.6412L184.488 156.67C182.849 160.263 181.059 162.695 179.116 163.969C177.173 165.243 174.677 165.88 171.629 165.88Z" fill="#191F28"/>
<path d="M288.886 135.319C281.962 135.319 275.871 133.598 270.613 130.158C265.355 126.717 261.878 122.139 260.183 116.424L262.071 111.325V122.664C262.071 126.642 261.048 129.689 259.002 131.804C256.955 133.918 254.046 134.975 250.275 134.975C246.411 134.975 243.45 133.918 241.393 131.804C239.336 129.689 238.307 126.642 238.307 122.664V23.2292C238.307 19.2506 239.341 16.2273 241.409 14.1592C243.477 12.0912 246.443 11.0571 250.307 11.0571C254.171 11.0571 257.161 12.0912 259.275 14.1592C261.39 16.2273 262.447 19.2506 262.447 23.2292V65.5773H260.387C262.197 60.2269 265.702 55.8994 270.903 52.5947C276.103 49.2899 282.098 47.6376 288.886 47.6376C296.283 47.6376 302.734 49.4117 308.239 52.96C313.744 56.5083 318.047 61.5321 321.148 68.0314C324.249 74.5307 325.8 82.323 325.8 91.4085C325.8 100.379 324.249 108.166 321.148 114.769C318.047 121.372 313.72 126.448 308.169 129.996C302.618 133.545 296.19 135.319 288.886 135.319ZM281.78 117.168C285.692 117.168 289.127 116.219 292.084 114.32C295.042 112.421 297.348 109.569 299.004 105.764C300.66 101.959 301.488 97.1736 301.488 91.4085C301.488 82.7035 299.676 76.2571 296.054 72.0695C292.431 67.8818 287.673 65.7879 281.78 65.7879C277.889 65.7879 274.459 66.7142 271.491 68.5666C268.523 70.419 266.211 73.2425 264.555 77.0368C262.899 80.8312 262.071 85.6218 262.071 91.4085C262.071 100.02 263.883 106.467 267.506 110.747C271.128 115.028 275.886 117.168 281.78 117.168Z" fill="#191F28"/>
<path d="M352.292 134.836C348.428 134.836 345.461 133.687 343.393 131.39C341.325 129.093 340.291 125.866 340.291 121.709V61.2478C340.291 56.9972 341.325 53.7467 343.393 51.4962C345.461 49.2456 348.428 48.1204 352.292 48.1204C356.156 48.1204 359.145 49.2456 361.26 51.4962C363.374 53.7467 364.432 56.9972 364.432 61.2478V121.709C364.432 125.866 363.403 129.093 361.346 131.39C359.288 133.687 356.27 134.836 352.292 134.836Z" fill="#191F28"/>
<path d="M411.544 135.319C405.349 135.319 399.838 134.135 395.013 131.767C390.188 129.399 386.414 126.185 383.692 122.125C380.97 118.065 379.609 113.474 379.609 108.352C379.609 102.171 381.211 97.2829 384.416 93.6882C387.621 90.0934 392.818 87.5002 400.007 85.9085C407.197 84.3168 416.804 83.521 428.83 83.521H437.672V96.496H428.937C422.615 96.496 417.535 96.834 413.698 97.51C409.861 98.186 407.115 99.3 405.459 100.852C403.803 102.404 402.975 104.539 402.975 107.257C402.975 110.711 404.179 113.538 406.585 115.737C408.992 117.937 412.381 119.036 416.751 119.036C420.248 119.036 423.354 118.225 426.068 116.601C428.783 114.978 430.945 112.744 432.554 109.901C434.163 107.058 434.968 103.784 434.968 100.08V80.3028C434.968 75.0316 433.773 71.2607 431.384 68.99C428.995 66.7193 424.943 65.584 419.228 65.584C416.059 65.584 412.622 65.9577 408.917 66.7051C405.211 67.4526 401.231 68.7454 396.974 70.5836C394.541 71.6353 392.414 71.8838 390.593 71.3291C388.772 70.7745 387.366 69.7118 386.375 68.1412C385.384 66.5706 384.894 64.8407 384.904 62.9517C384.915 61.0627 385.454 59.2237 386.52 57.435C387.586 55.6462 389.336 54.3081 391.769 53.4208C397.077 51.2891 402.137 49.7923 406.947 48.9304C411.758 48.0685 416.145 47.6376 420.108 47.6376C428.694 47.6376 435.761 48.9236 441.309 51.4955C446.857 54.0674 451.007 57.97 453.758 63.2034C456.509 68.4368 457.884 75.1564 457.884 83.3623V122.664C457.884 126.642 456.924 129.689 455.002 131.804C453.081 133.918 450.313 134.975 446.7 134.975C443.086 134.975 440.29 133.918 438.311 131.804C436.333 129.689 435.344 126.642 435.344 122.664V115.552L436.62 116.23C435.884 120.129 434.38 123.5 432.108 126.343C429.837 129.186 426.965 131.393 423.492 132.963C420.019 134.534 416.037 135.319 411.544 135.319Z" fill="#191F28"/>
<path d="M507.907 135.319C502.921 135.319 497.729 134.841 492.331 133.886C486.934 132.932 482.072 131.292 477.744 128.968C475.611 127.823 474.103 126.413 473.219 124.739C472.335 123.065 471.963 121.364 472.102 119.635C472.242 117.907 472.83 116.38 473.868 115.052C474.905 113.725 476.266 112.83 477.951 112.368C479.636 111.906 481.502 112.133 483.549 113.049C488.17 115.095 492.463 116.531 496.426 117.357C500.389 118.183 504.262 118.596 508.046 118.596C513.175 118.596 516.96 117.749 519.402 116.054C521.845 114.359 523.066 112.138 523.066 109.392C523.066 107.018 522.26 105.196 520.647 103.926C519.034 102.657 516.658 101.733 513.518 101.154L495.801 97.9237C488.704 96.5932 483.269 93.9893 479.495 90.1118C475.721 86.2343 473.835 81.2086 473.835 75.0346C473.835 69.4114 475.4 64.5537 478.53 60.4615C481.66 56.3693 485.995 53.209 491.536 50.9804C497.077 48.7519 503.436 47.6376 510.611 47.6376C515.691 47.6376 520.407 48.1382 524.76 49.1395C529.113 50.1409 533.339 51.7216 537.438 53.8817C539.37 54.8404 540.71 56.1283 541.458 57.7454C542.206 59.3625 542.424 61.0351 542.113 62.7632C541.802 64.4913 541.104 66.037 540.02 67.4002C538.936 68.7634 537.546 69.6419 535.851 70.0356C534.155 70.4294 532.226 70.1576 530.065 69.2204C526.453 67.4966 523.063 66.2557 519.898 65.4975C516.733 64.7393 513.727 64.3602 510.88 64.3602C505.53 64.3602 501.622 65.2309 499.159 66.9723C496.695 68.7137 495.463 71.004 495.463 73.8431C495.463 75.9455 496.183 77.7119 497.624 79.1422C499.065 80.5725 501.273 81.5415 504.249 82.0493L521.966 85.2791C529.385 86.6096 535.027 89.1278 538.894 92.8335C542.761 96.5393 544.694 101.536 544.694 107.825C544.694 116.439 541.346 123.174 534.649 128.032C527.953 132.89 519.039 135.319 507.907 135.319Z" fill="#191F28"/>
<path d="M352.246 41.8056C328.076 24.5456 327.076 10.0156 338.146 2.29562C345.196 -2.70438 350.236 0.935636 352.246 8.65564C354.256 0.935636 359.296 -2.70438 366.346 2.29562C377.416 10.0156 376.416 24.5456 352.246 41.8056Z" fill="#C52A3A"/>
</svg>
